<svg width="59" height="37" viewBox="0 0 59 37" fill="none" xmlns="http://www.w3.org/2000/svg">
<path d="M12 31C12 34.3137 9.31371 37 6 37C2.68629 37 0 34.3137 0 31C0 27.6863 2.68629 25 6 25C9.31371 25 12 27.6863 12 31Z" fill="#D9D9D9"/>
<path d="M12 6C12 9.31371 9.31371 12 6 12C2.68629 12 0 9.31371 0 6C0 2.68629 2.68629 0 6 0C9.31371 0 12 2.68629 12 6Z" fill="#D9D9D9"/>
<path d="M20.917 6C20.917 9.31371 18.2308 12 14.917 12C11.6033 12 8.91704 9.31371 8.91704 6C8.91704 2.68629 11.6033 -2.38419e-07 14.917 -2.38419e-07C18.2308 -2.38419e-07 20.917 2.68629 20.917 6Z" fill="#D9D9D9"/>
<path d="M55 31C55 34.3137 52.3137 37 49 37C45.6863 37 43 34.3137 43 31C43 27.6863 45.6863 25 49 25C52.3137 25 55 27.6863 55 31Z" fill="#D9D9D9"/>
<path d="M55 10C55 13.3137 52.3137 16 49 16C45.6863 16 43 13.3137 43 10C43 6.68629 45.6863 4 49 4C52.3137 4 55 6.68629 55 10Z" fill="#D9D9D9"/>
<path d="M6 4H49V37H6V4Z" fill="#D9D9D9"/>
<path d="M6 0L14.917 -2.38419e-07V12H6V0Z" fill="#D9D9D9"/>
<path d="M0 6L15 6V31H0V6Z" fill="#D9D9D9"/>
<path d="M46 10H55V31H46V10Z" fill="#D9D9D9"/>
<path d="M12 31C12 34.3137 9.31371 37 6 37C2.68629 37 0 34.3137 0 31C0 27.6863 2.68629 25 6 25C9.31371 25 12 27.6863 12 31Z" fill="#BFB1F7"/>
<path d="M16 6C16 9.31371 9.31371 12 6 12C2.68629 12 3.44 9.5 4 6C4.56 2.5 6.68629 2.38419e-07 10 2.38419e-07C13.3137 2.38419e-07 16 2.68629 16 6Z" fill="#BFB1F7"/>
<path d="M23 6C23 9.31371 18.2308 12 14.917 12C11.6033 12 12.917 9.31371 12.917 6C12.917 2.68629 15.6033 0 18.917 0C22.2308 0 23 2.68629 23 6Z" fill="#BFB1F7"/>
<path d="M55 31C55 34.3137 52.3137 37 49 37C45.6863 37 43 34.3137 43 31C43 27.6863 45.6863 25 49 25C52.3137 25 55 27.6863 55 31Z" fill="#BFB1F7"/>
<path d="M59 10C59 13.3137 52.3137 16 49 16C45.6863 16 47 13.3137 47 10C47 6.68629 49.6863 4 53 4C56.3137 4 59 6.68629 59 10Z" fill="#BFB1F7"/>
<path d="M10 4H53L49 37H6L10 4Z" fill="#BFB1F7"/>
<path d="M10 2.38419e-07L18.917 0L14.917 12H6L10 2.38419e-07Z" fill="#BFB1F7"/>
<path d="M4 6L19 6L15 31H0L4 6Z" fill="#BFB1F7"/>
<path d="M50 10H59L55 31H46L50 10Z" fill="#BFB1F7"/>
</svg>
