<svg width="62" height="48" viewBox="0 0 62 48" fill="none" xmlns="http://www.w3.org/2000/svg">
<rect width="55" height="37" rx="5" fill="#D8D9D9"/>
<rect y="39" width="55" height="9" rx="4.5" fill="#D8D9D9"/>
<rect x="3" y="6" width="49" height="28" rx="2" fill="#BFB0F7"/>
<rect x="14" y="21.4701" width="15.9382" height="3" rx="1" transform="rotate(-45 14 21.4701)" fill="#D8D9D9"/>
<rect x="26" y="29.4701" width="15.9382" height="3" rx="1" transform="rotate(-45 26 29.4701)" fill="#D8D9D9"/>
<rect x="15.7999" y="29.6702" width="27.8179" height="3" rx="1" transform="rotate(-45 15.7999 29.6702)" fill="#D8D9D9"/>
<circle cx="53" cy="35" r="9" fill="#D9D9D9"/>
<path d="M47.0002 34.9979C46.9934 34.7459 47.1267 34.2093 47.6327 34.1603L48.3059 34.099C48.3263 33.813 48.4977 33.0652 49.02 32.3624L48.5303 31.6882C48.4283 31.5588 48.3448 31.1936 48.7854 30.7523C48.9586 30.5694 49.4132 30.2882 49.8055 30.6118L50.3249 31.0452C50.5413 30.8574 51.1904 30.45 52.056 30.3228L52.1858 29.4994C52.205 29.3357 52.4075 29 53.0307 29C53.3042 29 53.8061 29.098 53.855 29.6047L53.9162 30.2788C54.2018 30.2993 54.9485 30.4709 55.6503 30.9939L56.3236 30.5036C56.4528 30.4014 56.8175 30.3178 57.2581 30.7591C57.4408 30.9324 57.7216 31.3877 57.3985 31.7806L56.9657 32.3007C57.1533 32.5174 57.5601 33.1674 57.687 34.0342L58.5093 34.1642C58.6728 34.1835 58.9998 34.378 58.9998 35.0021C59.0066 35.2541 58.8733 35.7907 58.3673 35.8397L57.6941 35.901C57.6737 36.187 57.5023 36.9348 56.98 37.6376L57.4697 38.3118C57.5717 38.4412 57.6552 38.8064 57.2146 39.2477C57.0414 39.4306 56.5868 39.7118 56.1945 39.3882L55.6751 38.9548C55.4587 39.1426 54.8096 39.55 53.944 39.6772L53.8142 40.5006C53.795 40.6643 53.5925 41 52.9693 41C52.6958 41 52.1939 40.902 52.145 40.3953L52.0838 39.7212C51.7982 39.7007 51.0515 39.5291 50.3497 39.0061L49.6764 39.4964C49.5472 39.5986 49.1825 39.6822 48.7419 39.2409C48.5592 39.0676 48.2784 38.6123 48.6015 38.2194L49.0343 37.6993C48.8467 37.4826 48.4399 36.8326 48.313 35.9658L47.4907 35.8358C47.3272 35.8165 47.0002 35.622 47.0002 34.9979Z" fill="#BFB0F7"/>
<circle cx="53" cy="35" r="2.30769" fill="#D9D9D9"/>
</svg>
