<svg xmlns="http://www.w3.org/2000/svg" xmlns:xlink="http://www.w3.org/1999/xlink" xmlns:serif="http://www.serif.com/" width="100%" height="100%" viewBox="0 0 4961 4961" version="1.1" xml:space="preserve" style="fill-rule:evenodd;clip-rule:evenodd;stroke-linejoin:round;stroke-miterlimit:2;">
    <g transform="matrix(5.94424,0,0,5.94424,-14015.5,-11437.6)">
        <circle cx="2776.35" cy="2341.77" r="331.444" style="fill:rgb(113,89,171);"/>
    </g>
    <g transform="matrix(2.19133,5.17663,-5.21157,2.20612,9388.72,-17436.2)" id="one">
        <path d="M2385.26,2321.65C2405.46,2273.31 2434.88,2229.77 2471.33,2193.24L2518.72,2240.57C2488.54,2270.9 2464.16,2307.05 2447.42,2347.18L2385.26,2321.65Z" style="fill:rgb(132,102,209);"/>
    </g><g transform="matrix(0.0621001,5.621,-5.65893,0.0625192,16447.1,-13321.9)" id="two">
        <path d="M2385.26,2321.65C2405.46,2273.31 2434.88,2229.77 2471.33,2193.24L2518.72,2240.57C2488.54,2270.9 2464.16,2307.05 2447.42,2347.18L2385.26,2321.65Z" style="fill:rgb(132,102,209);"/>
    </g><g transform="matrix(-2.18113,5.18094,-5.17522,-2.17872,21473,-6523.23)" class="three">
        <path d="M2385.26,2321.65C2405.46,2273.31 2434.88,2229.77 2471.33,2193.24L2518.72,2240.57C2488.54,2270.9 2464.16,2307.05 2447.42,2347.18L2385.26,2321.65Z" style="fill:rgb(132,102,209);"/>
    </g><g transform="matrix(-4.02116,3.92807,-3.92807,-4.02116,23491.4,1565.37)" id="four">
        <path d="M2385.26,2321.65C2405.46,2273.31 2434.88,2229.77 2471.33,2193.24L2518.72,2240.57C2488.54,2270.9 2464.16,2307.05 2447.42,2347.18L2385.26,2321.65Z" style="fill:rgb(132,102,209);"/>
    </g><g transform="matrix(-5.18584,2.16944,-2.16944,-5.18584,22352.5,9401.09)" id="five">
        <path d="M2385.26,2321.65C2405.46,2273.31 2434.88,2229.77 2471.33,2193.24L2518.72,2240.57C2488.54,2270.9 2464.16,2307.05 2447.42,2347.18L2385.26,2321.65Z" style="fill:rgb(132,102,209);"/>
    </g><g transform="matrix(-5.62131,-0.0172221,0.0172031,-5.6151,18125.2,16515.3)" id="six">
        <path d="M2385.26,2321.65C2405.46,2273.31 2434.88,2229.77 2471.33,2193.24L2518.72,2240.57C2488.54,2270.9 2464.16,2307.05 2447.42,2347.18L2385.26,2321.65Z" style="fill:rgb(132,102,209);"/>
    </g>
    <g transform="matrix(-5.17236,-2.2014,2.2014,-5.17236,11421.4,21510.2)" id="seven">
        <path d="M2385.26,2321.65C2405.46,2273.31 2434.88,2229.77 2471.33,2193.24L2518.72,2240.57C2488.54,2270.9 2464.16,2307.05 2447.42,2347.18L2385.26,2321.65Z" style="fill:rgb(132,102,209);"/>
    </g><g transform="matrix(-3.99685,-3.95281,3.95281,-3.99685,3750.23,23472.1)" id="eight">
        <path d="M2385.26,2321.65C2405.46,2273.31 2434.88,2229.77 2471.33,2193.24L2518.72,2240.57C2488.54,2270.9 2464.16,2307.05 2447.42,2347.18L2385.26,2321.65Z" style="fill:rgb(132,102,209);"/>
    </g><g transform="matrix(-2.17085,-5.18526,5.22278,-2.18655,-4512.85,22380.8)" id="nine">
        <path d="M2385.26,2321.65C2405.46,2273.31 2434.88,2229.77 2471.33,2193.24L2518.72,2240.57C2488.54,2270.9 2464.16,2307.05 2447.42,2347.18L2385.26,2321.65Z" style="fill:rgb(132,102,209);"/>
    </g><g transform="matrix(0.00412766,-5.62134,5.65928,0.00415552,-11651.1,18132)" id="ten">
        <path d="M2385.26,2321.65C2405.46,2273.31 2434.88,2229.77 2471.33,2193.24L2518.72,2240.57C2488.54,2270.9 2464.16,2307.05 2447.42,2347.18L2385.26,2321.65Z" style="fill:rgb(132,102,209);"/>
    </g><g transform="matrix(2.13783,-5.19896,5.23404,2.15226,-16542.4,11588.1)" id="eleven">
        <path d="M2385.26,2321.65C2405.46,2273.31 2434.88,2229.77 2471.33,2193.24L2518.72,2240.57C2488.54,2270.9 2464.16,2307.05 2447.42,2347.18L2385.26,2321.65Z" style="fill:rgb(132,102,209);"/>
    </g><g transform="matrix(4.01591,-3.93344,3.92909,4.01147,-18520.7,3442.57)" id="twelve">
        <path d="M2385.26,2321.65C2405.46,2273.31 2434.88,2229.77 2471.33,2193.24L2518.72,2240.57C2488.54,2270.9 2464.16,2307.05 2447.42,2347.18L2385.26,2321.65Z" style="fill:rgb(132,102,209);"/>
    </g><g transform="matrix(5.2358,-2.04593,2.04593,5.2358,-17213.9,-4868.04)" id="thirteen">
        <path d="M2385.26,2321.65C2405.46,2273.31 2434.88,2229.77 2471.33,2193.24L2518.72,2240.57C2488.54,2270.9 2464.16,2307.05 2447.42,2347.18L2385.26,2321.65Z" style="fill:rgb(132,102,209);"/>
    </g><g transform="matrix(5.62127,0.0278763,-0.0278763,5.62127,-13100.7,-11629.2)" id="fourteen">
        <path d="M2385.26,2321.65C2405.46,2273.31 2434.88,2229.77 2471.33,2193.24L2518.72,2240.57C2488.54,2270.9 2464.16,2307.05 2447.42,2347.18L2385.26,2321.65Z" style="fill:rgb(132,102,209);"/>
    </g>
    
    
    
    
    
    
    
    
    
    
    <g transform="matrix(5.16988,2.20723,-2.20479,5.16416,-6430.43,-16543.3)" id="fifteen">
        <path d="M2385.26,2321.65C2405.46,2273.31 2434.88,2229.77 2471.33,2193.24L2518.72,2240.57C2488.54,2270.9 2464.16,2307.05 2447.42,2347.18L2385.26,2321.65Z" style="fill:rgb(132,102,209);"/>
    </g>
    
    
    <g transform="matrix(4.02333,3.92585,-3.95426,4.05244,1158.08,-18560.2)" id="sixteen">
        <path d="M2385.26,2321.65C2405.46,2273.31 2434.88,2229.77 2471.33,2193.24L2518.72,2240.57C2488.54,2270.9 2464.16,2307.05 2447.42,2347.18L2385.26,2321.65Z" style="fill:rgb(132,102,209);"/>
    </g>
</svg>